PathFileType	4	(X/Y/Z)	C:\Users\Basilio\Documents\Thesis Gigler\squatting_fais\c3dfiles\073\SLS_back_pre3\markers_experimental.trc
DataRate	CameraRate	NumFrames	NumMarkers	Units	OrigDataRate	OrigDataStartFrame	OrigNumFrames
200.000000	200.000000	4	61	mm	200.000000	658	1317
Frame#	Time	FHD			LBHD			RBHD			C7			T10			CLAV			LSHO			LUUPA			LMUPA			LDUPA			LLEP			LMEP			LRAD			LUL			LRFIN			RSHO			RUPA1			RMUPA			RDUPA			RLEP			RMEP			RUL			RUFIN			LASI			RASI			USACR			LSACR			RSACR			LTHI1			LTHI2			LTHI3			LTHI4			LLFC			LMFC			LTIB1			LTIB2			LTIB3			LTIB4			LLMAL			LMMAL			LHEE			LMT1			LMT2			LMT5			RTHI			RTHI2			RTHI3			RTHI4			RLFC			RMFC			RTIB1			RTIB2			RTIB3			RTIB4			RLMAL			RMMAL			RHEE			RMT1			RMT2			RMT5			RRAD			
		X1	Y1	Z1	X2	Y2	Z2	X3	Y3	Z3	X4	Y4	Z4	X5	Y5	Z5	X6	Y6	Z6	X7	Y7	Z7	X8	Y8	Z8	X9	Y9	Z9	X10	Y10	Z10	X11	Y11	Z11	X12	Y12	Z12	X13	Y13	Z13	X14	Y14	Z14	X15	Y15	Z15	X16	Y16	Z16	X17	Y17	Z17	X18	Y18	Z18	X19	Y19	Z19	X20	Y20	Z20	X21	Y21	Z21	X22	Y22	Z22	X23	Y23	Z23	X24	Y24	Z24	X25	Y25	Z25	X26	Y26	Z26	X27	Y27	Z27	X28	Y28	Z28	X29	Y29	Z29	X30	Y30	Z30	X31	Y31	Z31	X32	Y32	Z32	X33	Y33	Z33	X34	Y34	Z34	X35	Y35	Z35	X36	Y36	Z36	X37	Y37	Z37	X38	Y38	Z38	X39	Y39	Z39	X40	Y40	Z40	X41	Y41	Z41	X42	Y42	Z42	X43	Y43	Z43	X44	Y44	Z44	X45	Y45	Z45	X46	Y46	Z46	X47	Y47	Z47	X48	Y48	Z48	X49	Y49	Z49	X50	Y50	Z50	X51	Y51	Z51	X52	Y52	Z52	X53	Y53	Z53	X54	Y54	Z54	X55	Y55	Z55	X56	Y56	Z56	X57	Y57	Z57	X58	Y58	Z58	X59	Y59	Z59	X60	Y60	Z60	X61	Y61	Z61	

659	3.29	16.06967544555664	1274.160888671875	-751.6821289062501	-118.8361587524414	1256.559692382813	-782.7772216796877	-149.3635406494141	1238.356323242188	-650.9136962890626	-180.6339111328125	1172.200561523438	-718.2940063476564	-409.1353454589845	940.9970703125002	-747.7362670898439	-104.7031402587891	1038.608154296875	-716.6229248046876	-105.4024505615235	1120.16162109375	-843.319519042969	-34.39104080200196	1048.831298828125	-944.8554687500002	6.843899726867678	1059.428955078125	-918.5532226562502	23.84759330749512	1013.787414550781	-955.1107177734377	123.5641479492188	975.4063720703127	-956.6113281250002	112.3975296020508	918.8142700195315	-915.9829711914065	378.5610961914063	975.3626708984377	-831.615661621094	385.8941345214845	972.321472167969	-905.6345825195315	460.8134155273439	976.8208618164065	-820.1137695312502	-102.6854782104492	1103.974731445313	-586.1546630859376	-35.77097702026368	1002.898315429688	-477.5011291503907	5.957937240600587	1019.460327148438	-494.5810852050782	23.19785881042481	967.3018188476565	-470.4133605957032	113.6779937744141	941.3820800781252	-468.5313415527345	108.1155014038086	889.1275634765627	-532.9498901367189	377.5526733398438	975.1429443359377	-508.2200317382814	458.0196838378907	995.6116943359377	-584.0198974609376	-361.2982788085938	706.3869628906251	-854.991394042969	-365.0032043457032	752.8707275390626	-615.3319091796876	-499.9627380371095	858.6395263671877	-747.8815917968751	-521.2484741210939	833.3135986328127	-772.143737792969	-529.1992187500001	844.1897583007815	-716.7322998046876	-421.4288940429689	406.6431274414064	-901.1538085937502	-387.9331970214845	330.5465393066407	-879.7720336914065	-348.9723815917969	334.3074035644532	-850.0777587890627	-421.0465698242189	281.1878662109376	-870.6943969726565	-434.4824218750001	239.3132476806641	-871.9844970703127	-450.441619873047	242.5031433105469	-735.0264282226564	-610.6239624023439	183.9825744628907	-829.3813476562502	-643.9919433593751	238.6749877929688	-889.861511230469	-654.1902465820314	202.0450134277344	-866.676208496094	-734.1525268554689	209.2040252685547	-840.5780029296877	-845.1162109375002	275.5522155761719	-881.2056274414065	-827.3372192382815	269.9938049316407	-793.0552368164065	-868.7532348632815	342.6541137695313	-845.2166137695315	-913.441833496094	128.6927947998047	-786.5466918945315	-910.7915039062502	122.0988540649414	-823.574645996094	-928.1277465820315	154.8510894775391	-881.7652587890627	-344.7691040039063	605.6746826171876	-543.9292602539064	-279.3692321777344	597.4544067382814	-552.7349243164064	-259.5937805175782	622.7848510742189	-561.1004638671876	-240.0402832031251	526.2135620117189	-573.8256835937501	-143.2560272216797	439.2749023437501	-616.2327880859376	-149.3725128173828	447.3305053710939	-741.7902221679689	-172.6067657470703	297.9606628417969	-724.8696289062501	-226.6436767578126	228.2826690673829	-662.1222534179689	-211.215560913086	221.5777282714844	-706.4573974609376	-253.9188232421876	197.5404357910157	-738.8533935546876	-350.7975463867188	93.06966400146486	-688.1495361328126	-342.8020019531251	127.9907302856446	-773.2546997070315	-430.3100585937501	81.58351898193361	-743.9252319335939	-205.9408416748047	55.81369781494142	-760.0705566406251	-205.8674011230469	51.54456710815431	-719.0422363281251	-248.527328491211	34.27219772338868	-670.4544067382814	366.6557312011719	969.650573730469	-580.6192626953126	
660	3.295	16.44234848022461	1273.786010742188	-751.5162963867189	-118.5389556884766	1256.154174804688	-782.7681884765627	-149.0598602294922	1237.998413085938	-650.8776855468751	-180.3374938964844	1171.904418945313	-718.3380126953126	-408.878143310547	940.8018798828127	-747.8681030273439	-104.3736114501953	1038.206909179688	-716.5526733398439	-105.0212707519532	1119.813598632813	-843.3233642578127	-34.11644363403321	1048.477172851563	-944.9292602539065	7.248877525329592	1059.062866210938	-918.4732666015627	24.35127639770509	1013.518188476563	-955.0924072265627	123.9569091796875	975.077331542969	-956.4827880859377	112.7023086547852	918.4632568359377	-916.0300292968752	378.8864746093751	975.034118652344	-831.5839843750002	386.1481018066407	971.992614746094	-905.6702880859377	461.0270080566407	976.4278564453127	-819.8316040039065	-102.4802627563477	1103.610717773438	-586.1704711914064	-35.60178375244141	1002.591369628906	-477.5243530273439	6.210847377777101	1019.109008789063	-494.5781250000001	23.34948348999024	967.0305786132815	-470.4683532714845	113.8347320556641	941.0871582031252	-468.5642700195314	108.3867568969727	888.7188110351565	-532.9742431640626	377.7163391113282	974.829528808594	-508.2958984375001	458.2012634277345	995.2664794921877	-584.1060791015626	-361.1351013183594	706.2004394531251	-855.0004882812502	-364.9382934570313	752.7603149414064	-615.3843383789064	-499.7790527343751	858.443542480469	-748.0989379882814	-521.1135253906251	833.129577636719	-772.292663574219	-529.0999755859376	844.0090942382815	-716.9063110351564	-421.2245178222657	406.392303466797	-901.1628417968752	-387.6493530273439	330.3169555664063	-879.7320556640627	-348.6999206542969	334.1236877441407	-849.9837646484377	-420.7939758300782	280.9451293945313	-870.657165527344	-434.1788635253907	239.116683959961	-871.9525146484377	-450.342742919922	242.3288726806641	-734.9841308593751	-610.4195556640626	183.8183288574219	-829.4289550781252	-643.6140136718751	238.4666442871094	-890.0074462890627	-653.9306640625001	201.9335937500001	-866.8460693359377	-733.9397583007814	209.0772857666016	-840.9123535156252	-844.780700683594	275.5202331542969	-881.5823974609377	-827.127136230469	269.9497375488282	-793.3710937500002	-868.4655761718752	342.6245117187501	-845.6367187500002	-913.3194580078127	128.6361541748047	-786.8423461914065	-910.6430664062502	122.0270614624024	-824.105407714844	-927.9493408203127	154.7044219970703	-882.0205688476565	-344.7248229980469	605.4932250976564	-544.0079956054689	-279.3681335449219	597.2763671875001	-552.9043579101564	-259.6322326660157	622.6119384765626	-561.1722412109376	-239.999984741211	526.0438842773439	-573.9545288085939	-143.1735382080078	439.1538696289064	-616.3310546875001	-149.2869262695313	447.2748413085939	-741.9050903320314	-172.5854949951172	298.0193481445313	-725.0526123046876	-226.5283203125001	228.198959350586	-662.3340454101564	-211.1409149169922	221.5129852294922	-706.6126098632814	-253.8586425781251	197.5363464355469	-739.0125732421876	-350.7457885742188	93.15116119384767	-688.2496337890626	-342.8450317382813	127.9393386840821	-773.4887695312502	-430.300750732422	81.62821197509767	-743.9846191406251	-205.8830261230469	55.75195693969728	-760.0730590820314	-205.8686523437501	51.53259658813478	-719.0753173828126	-248.5043029785157	34.32148361206055	-670.4898071289064	366.8804016113282	969.3652343750002	-580.3804931640626	
661	3.3	16.73532485961914	1273.442626953125	-751.3827514648439	-118.2351455688477	1255.765014648438	-782.7425537109377	-148.7736206054688	1237.691528320313	-650.8527221679689	-180.0094299316407	1171.570068359375	-718.3336791992189	-408.7212219238282	940.698913574219	-748.0164794921876	-103.9601287841797	1037.894165039063	-716.5307006835939	-104.6697540283203	1119.46484375	-843.3128662109377	-33.6515235900879	1048.120483398438	-944.8730468750002	7.33969831466675	1058.643432617188	-918.7520141601565	24.11029624938966	1013.081420898438	-955.3417968750002	124.4277267456055	974.7481079101565	-956.433776855469	113.12744140625	918.1961669921877	-916.0960083007815	379.2430725097657	974.6820068359377	-831.545349121094	386.4365539550782	971.6601562500002	-905.634460449219	461.6452026367189	976.1704101562502	-819.7703857421877	-102.2842559814453	1103.26220703125	-586.2177734375001	-35.40971755981446	1002.316650390625	-477.5989074707032	6.383938789367678	1018.804626464844	-494.5474548339845	23.51259422302246	966.7414550781252	-470.4415588378907	114.0476760864258	940.8029785156252	-468.546112060547	108.5391464233399	888.3496093750002	-532.8727416992189	377.9149780273438	974.4922485351565	-508.3366088867189	458.3697204589845	994.923034667969	-584.0980834960939	-360.8896179199219	705.9896240234376	-855.0722656250002	-364.9536743164063	752.5685424804689	-615.4453125000001	-499.6112365722657	858.2553710937502	-748.3227539062501	-520.9785766601564	832.9556884765627	-772.504333496094	-529.0330200195314	843.844909667969	-717.1134033203126	-421.0010681152345	406.1985168457032	-901.2655029296877	-387.4245605468751	330.1058654785157	-879.688415527344	-348.4861450195313	333.9377136230469	-849.9208984375002	-420.5491333007814	280.7668457031251	-870.6386718750002	-433.9657592773439	238.9586334228516	-871.950378417969	-450.2691955566407	242.2234039306641	-734.9639892578126	-610.2050170898439	183.7963409423828	-829.5883789062502	-643.4039916992189	238.3567504882813	-890.139831542969	-653.6228027343751	201.777328491211	-867.0399169921877	-733.6871948242189	208.999740600586	-841.1289672851565	-844.4727172851565	275.3908996582032	-881.8768310546877	-826.9176025390627	269.9328918457032	-793.709167480469	-868.2377929687502	342.5806884765626	-846.0134887695315	-913.180114746094	128.6535949707032	-787.1884765625002	-910.4310302734377	121.9952697753907	-824.4458618164065	-927.7821044921877	154.6360778808594	-882.3069458007815	-344.7439575195313	605.3300781250001	-544.2151489257814	-279.3598632812501	597.1160278320314	-553.0255737304689	-259.6072387695313	622.4641113281251	-561.2656860351564	-239.9405670166016	525.8852539062501	-574.0229492187501	-143.0330657958985	439.0521850585939	-616.4486694335939	-149.1770477294922	447.2697143554689	-742.0203857421876	-172.5811920166016	297.9454345703126	-725.2814941406251	-226.3980407714844	228.0672912597657	-662.6984863281251	-211.0429229736329	221.4021453857422	-706.9757080078126	-253.7922058105469	197.527816772461	-739.2778320312501	-350.7023620605469	93.2512893676758	-688.4151611328126	-342.8384399414063	127.8900985717774	-773.723815917969	-430.2879028320314	81.61624145507814	-744.0906372070314	-205.8325500488282	55.7041358947754	-760.0830688476564	-205.8359069824219	51.53449630737306	-719.1452636718751	-248.5213623046876	34.3546371459961	-670.4934082031251	367.1601867675782	968.9965820312502	-580.3426513671876	
662	3.305	17.20386123657227	1273.086669921875	-751.4224853515626	-117.7409896850586	1255.441528320313	-782.7625732421877	-148.4721984863282	1237.373657226563	-650.8660278320314	-179.6932830810547	1171.244873046875	-718.3792114257814	-407.8376770019532	940.132751464844	-748.0914916992189	-103.7013702392578	1037.581420898438	-716.4714355468751	-104.3536682128907	1119.1337890625	-843.3355712890627	-33.27563858032227	1047.712036132813	-944.906433105469	7.712834358215334	1058.327514648438	-918.7198486328127	24.32827377319337	1012.657287597656	-955.279724121094	124.775863647461	974.4653320312502	-956.3553466796877	113.5190811157227	917.9199829101565	-915.9402465820315	379.5835266113282	974.3315429687502	-831.4743652343752	386.7566833496095	971.2693481445315	-905.5284423828127	462.2416076660157	975.8369140625002	-820.0017700195315	-102.034782409668	1102.897705078125	-586.3058471679689	-35.25270080566407	1002.036376953125	-477.6066894531251	6.526050567626955	1018.549743652344	-494.5164184570314	23.66215705871582	966.474060058594	-470.444061279297	114.2283172607422	940.4965820312502	-468.4848632812501	108.6805877685547	888.000183105469	-532.8532104492189	378.0700378417969	974.1632080078127	-508.349090576172	458.5108642578126	994.5299072265627	-584.1054687500001	-360.7590026855469	705.8225097656251	-855.1083984375002	-364.9988403320313	752.3023681640626	-615.5111083984376	-499.4598083496095	858.0958251953127	-748.4683837890626	-520.8257446289064	832.8302001953127	-772.764587402344	-528.8354492187501	843.6973876953127	-717.3421020507814	-420.7123413085939	406.1030578613282	-901.2007446289065	-387.1806945800782	329.8968811035157	-879.6535644531252	-348.3112792968751	333.7491149902344	-849.8572387695315	-420.3267517089845	280.5766601562501	-870.565856933594	-433.7286071777345	238.7664184570313	-871.916442871094	-450.200164794922	242.0958862304688	-734.8947143554689	-610.0237426757814	183.7545013427735	-829.8603515625002	-643.2160034179689	238.2790069580079	-890.2248535156252	-653.3853149414064	201.7597198486329	-867.1541748046877	-733.4799804687501	208.9278411865235	-841.3415527343752	-844.2969970703127	275.2343750000001	-882.153747558594	-826.744079589844	269.8969421386719	-794.056579589844	-868.0339965820315	342.5100708007813	-846.3897094726565	-913.0777587890627	128.6160583496094	-787.420837402344	-910.1545410156252	121.9057693481446	-824.7935791015627	-927.586853027344	154.6048431396485	-882.814636230469	-344.7268981933594	605.1629028320314	-544.3864135742189	-279.3524780273438	596.9742431640626	-553.1823120117189	-259.6166687011719	622.3101196289064	-561.3751220703126	-239.9626007080079	525.7506713867189	-574.1953125000001	-142.9356536865235	438.9275512695314	-616.6204833984376	-149.1386108398438	447.2360229492189	-742.1144409179689	-172.6266632080078	297.8597717285157	-725.5324707031251	-226.2558898925782	227.9103393554688	-663.0691528320314	-210.8858795166016	221.3146972656251	-707.3280029296876	-253.7519226074219	197.4864196777344	-739.5869750976564	-350.6751403808594	93.41602325439455	-688.5399780273439	-342.8256835937501	127.7705154418946	-774.0654296875002	-430.2608032226564	81.6824417114258	-744.1176757812501	-205.8588867187501	55.55104827880861	-760.1946411132814	-205.8398742675782	51.58929824829103	-719.1982421875001	-248.4832000732422	34.40970611572266	-670.5573120117189	367.1911621093751	968.6457519531252	-580.7581176757814	
